<svg id="svg" version="1.1" xmlns="http://www.w3.org/2000/svg" xmlns:xlink="http://www.w3.org/1999/xlink" width="400" height="225" viewBox="0, 0, 400,225"><g id="svgg"><path id="path0" d="M190.770 49.693 C 187.284 50.937,182.065 58.258,176.278 70.020 C 170.997 80.754,168.462 87.103,161.996 105.797 C 160.851 109.108,159.301 113.486,158.551 115.527 C 157.802 117.568,156.900 120.073,156.548 121.094 C 155.119 125.226,153.936 127.799,152.707 129.443 C 151.762 130.708,151.563 130.725,151.561 129.541 C 151.560 129.031,151.469 127.822,151.358 126.855 C 151.010 123.824,151.116 118.397,151.671 110.840 C 152.821 95.176,152.413 88.826,150.183 87.689 C 144.264 84.669,136.304 101.726,127.347 136.621 C 122.250 156.479,120.433 162.291,119.034 163.207 C 118.385 163.633,118.466 163.829,117.687 159.951 C 113.224 137.701,117.353 89.474,126.457 57.532 C 127.488 53.911,127.552 53.120,126.864 52.433 C 124.764 50.332,122.613 54.219,119.832 65.137 C 111.394 98.262,108.749 146.112,114.425 162.907 C 115.654 166.541,116.731 167.773,118.678 167.773 C 122.334 167.773,124.328 162.497,131.433 134.024 C 136.916 112.052,140.936 100.901,146.076 93.410 C 149.157 88.920,149.299 89.764,148.101 105.371 C 146.593 124.999,146.871 130.455,149.534 133.567 C 153.267 137.928,157.709 130.696,164.452 109.277 C 165.230 106.807,166.258 103.774,166.737 102.539 C 167.215 101.304,168.530 97.744,169.660 94.629 C 177.203 73.824,188.240 53.537,192.026 53.516 C 193.711 53.507,192.566 68.465,189.552 85.840 C 184.962 112.290,183.479 125.081,181.338 156.684 C 179.217 188.001,179.216 188.580,181.313 189.608 C 182.991 190.432,183.262 189.372,183.330 181.694 C 183.382 175.859,183.467 174.402,184.166 167.241 C 184.594 162.861,185.126 157.212,185.348 154.688 C 186.981 136.143,187.269 133.885,192.271 100.488 C 194.154 87.920,195.871 76.450,196.087 75.000 C 197.054 68.516,197.145 67.389,197.157 61.816 C 197.169 55.774,197.005 54.508,195.919 52.238 C 194.784 49.868,192.896 48.935,190.770 49.693 M239.926 77.337 C 237.651 78.258,236.796 82.526,238.690 83.505 C 240.368 84.373,242.576 82.904,242.577 80.918 C 242.580 78.143,241.509 76.697,239.926 77.337 M269.603 95.777 C 266.277 96.857,262.498 100.933,259.983 106.153 C 259.176 107.828,259.072 107.952,257.742 108.818 C 256.975 109.317,255.656 110.318,254.810 111.042 C 252.898 112.678,243.499 120.114,243.341 120.116 C 243.278 120.117,243.170 118.250,243.102 115.967 C 242.746 104.020,241.098 96.480,238.844 96.485 C 236.789 96.490,234.783 98.396,234.770 100.357 C 234.765 101.150,235.666 102.148,236.387 102.148 C 237.061 102.148,237.251 102.786,237.386 105.494 L 237.499 107.766 236.572 108.518 C 236.062 108.931,234.425 110.442,232.935 111.876 C 225.659 118.876,222.378 119.955,220.250 116.046 C 219.121 113.971,218.884 112.486,218.858 107.324 C 218.836 102.976,218.804 102.570,218.416 101.716 C 217.553 99.820,215.280 100.324,213.817 102.734 C 212.858 104.317,205.887 114.482,204.772 115.925 C 203.061 118.140,201.734 119.025,201.490 118.115 C 200.723 115.254,202.278 108.593,205.171 102.344 C 207.061 98.262,206.966 98.573,206.616 97.612 C 205.988 95.891,203.656 95.912,202.091 97.652 C 197.465 102.798,194.921 118.187,198.098 121.806 C 201.205 125.344,205.533 122.174,211.719 111.829 C 212.740 110.123,213.944 108.324,214.397 107.830 L 215.219 106.934 215.230 108.789 C 215.323 123.685,223.233 126.026,235.288 114.726 L 237.667 112.496 237.816 113.621 C 237.898 114.240,237.953 115.933,237.938 117.383 C 237.923 118.833,238.009 121.011,238.129 122.224 L 238.346 124.428 232.197 130.622 C 221.644 141.252,216.599 148.691,213.452 158.267 C 211.884 163.040,211.426 170.627,212.472 174.512 C 214.591 182.379,221.467 185.116,227.786 180.607 C 237.629 173.583,243.546 153.702,243.554 127.626 L 243.555 123.905 244.873 122.899 C 245.598 122.346,248.696 119.869,251.758 117.395 C 257.967 112.377,257.646 112.587,257.385 113.721 C 256.668 116.835,257.425 120.794,258.898 121.628 C 261.865 123.308,263.758 121.812,267.478 114.844 C 269.842 110.417,270.703 109.375,270.703 110.942 C 270.703 114.245,273.391 118.543,276.342 119.960 C 280.876 122.137,287.757 118.988,292.433 112.598 C 295.587 108.289,293.642 105.413,290.306 109.450 C 286.516 114.036,284.037 116.117,281.459 116.875 C 277.002 118.187,274.478 114.797,274.059 106.934 C 273.868 103.352,273.692 102.680,272.823 102.231 C 271.212 101.398,270.395 102.209,267.286 107.715 C 263.091 115.147,262.075 116.797,261.697 116.797 C 261.313 116.797,261.951 112.961,262.710 110.715 C 263.698 107.790,266.172 103.625,268.225 101.430 C 270.310 99.202,272.145 98.714,273.848 99.935 C 274.273 100.239,275.023 100.774,275.515 101.123 C 278.313 103.109,279.094 100.178,276.468 97.551 C 274.735 95.818,271.806 95.061,269.603 95.777 M238.380 130.908 C 238.329 132.009,238.242 134.624,238.187 136.719 C 237.752 153.227,234.358 166.717,228.702 174.414 C 219.865 186.441,211.262 175.592,216.418 158.924 C 218.980 150.643,228.369 137.325,236.773 130.052 C 238.504 128.553,238.490 128.545,238.380 130.908 " stroke="none" fill="#fc755d" fill-rule="evenodd"></path><path id="path1" d="M0.000 112.500 L 0.000 225.000 200.000 225.000 L 400.000 225.000 400.000 112.500 L 400.000 0.000 200.000 0.000 L 0.000 0.000 0.000 112.500 M193.975 49.823 C 197.644 51.680,198.393 60.235,196.188 75.098 C 195.917 76.924,194.118 88.965,192.191 101.855 C 187.357 134.194,187.339 134.340,185.452 154.883 C 184.855 161.382,184.183 168.369,183.960 170.410 C 183.663 173.119,183.519 176.083,183.427 181.383 C 183.287 189.430,183.248 189.655,181.950 189.809 C 180.462 189.986,179.765 188.583,179.590 185.059 C 179.481 182.874,182.315 137.612,182.903 132.129 C 184.232 119.742,186.539 103.222,189.065 87.988 C 192.735 65.860,193.737 53.711,191.891 53.711 C 190.726 53.711,187.560 57.486,184.720 62.262 C 178.970 71.930,174.533 81.532,169.855 94.434 C 168.726 97.549,167.410 101.108,166.931 102.344 C 166.452 103.579,165.217 107.238,164.186 110.474 C 158.631 127.920,155.072 134.766,151.559 134.766 C 149.035 134.766,147.499 131.153,147.092 124.261 C 146.886 120.775,147.003 118.361,148.033 104.883 C 149.188 89.771,149.058 89.104,145.894 93.895 C 140.831 101.561,136.721 113.034,131.634 133.699 C 124.426 162.984,122.030 168.932,117.862 167.886 C 114.134 166.951,111.762 156.032,111.218 137.305 C 111.072 132.270,112.054 111.609,112.699 106.152 C 116.351 75.250,121.900 51.758,125.547 51.758 C 127.405 51.758,127.861 53.408,126.874 56.559 C 118.044 84.743,113.359 137.353,117.709 159.473 C 118.444 163.211,118.499 163.365,119.019 163.166 C 119.824 162.857,122.222 155.944,124.298 147.949 C 124.995 145.264,126.444 139.683,127.519 135.547 C 136.184 102.189,143.654 85.850,149.561 87.337 C 152.683 88.124,153.018 91.813,151.728 111.230 C 151.106 120.603,151.084 123.152,151.583 128.013 L 151.822 130.342 152.472 129.575 C 153.249 128.659,154.402 126.465,155.235 124.316 C 156.206 121.811,159.785 111.845,161.617 106.543 C 168.592 86.361,172.007 77.930,177.522 67.285 C 184.877 53.087,189.897 47.759,193.975 49.823 M241.297 77.178 C 242.427 77.693,243.088 80.581,242.421 82.089 C 241.731 83.648,239.523 84.434,238.470 83.496 C 236.644 81.868,237.701 77.890,240.155 77.156 C 240.467 77.063,240.740 76.979,240.762 76.970 C 240.784 76.961,241.024 77.055,241.297 77.178 M273.432 95.622 C 276.709 96.595,279.425 100.506,277.638 101.677 C 276.945 102.132,276.315 101.914,274.653 100.645 C 272.268 98.824,270.811 98.984,268.521 101.318 C 265.455 104.442,262.832 109.522,262.013 113.920 C 261.300 117.747,261.777 117.274,265.712 110.254 C 270.278 102.110,271.134 101.129,272.793 102.141 C 273.889 102.809,274.072 103.443,274.235 107.129 C 274.755 118.897,281.291 120.384,289.258 110.547 C 291.740 107.481,292.536 106.966,293.653 107.697 C 296.577 109.613,287.914 119.094,281.840 120.625 C 276.508 121.969,270.579 116.860,270.500 110.853 L 270.492 110.254 269.941 110.898 C 269.637 111.253,268.620 112.966,267.679 114.707 C 263.704 122.063,262.060 123.370,258.836 121.737 C 257.361 120.989,256.574 117.370,257.178 114.111 C 257.283 113.547,257.344 113.086,257.315 113.086 C 257.285 113.086,255.517 114.499,253.386 116.225 C 251.255 117.952,248.228 120.376,246.659 121.613 L 243.806 123.861 243.672 129.362 C 243.063 154.178,238.465 170.792,229.955 178.918 C 218.180 190.163,207.255 176.318,213.442 157.993 C 216.728 148.262,221.602 141.122,232.390 130.235 C 237.149 125.433,238.302 124.170,238.185 123.888 C 238.071 123.613,237.830 118.227,237.709 113.224 C 237.696 112.716,237.513 112.845,234.992 115.143 C 229.207 120.416,226.145 122.051,222.466 121.833 C 217.988 121.568,215.770 118.081,215.194 110.400 C 215.071 108.762,214.920 107.423,214.858 107.425 C 214.632 107.431,213.233 109.504,211.476 112.441 C 205.800 121.922,201.671 125.054,198.435 122.331 C 193.719 118.363,198.821 96.289,204.453 96.289 C 205.852 96.289,206.390 96.607,206.731 97.635 L 207.038 98.559 205.887 100.989 C 202.715 107.682,201.135 113.492,201.507 117.096 C 201.786 119.800,202.941 118.616,209.609 108.789 C 215.409 100.241,215.010 100.719,216.544 100.475 C 218.454 100.170,218.943 101.516,218.944 107.088 C 218.948 120.008,222.793 121.459,232.444 112.182 C 233.994 110.692,235.722 109.085,236.284 108.612 L 237.305 107.751 237.295 106.464 C 237.269 103.160,236.973 102.158,236.020 102.151 C 233.325 102.132,234.958 97.132,237.863 96.509 C 241.215 95.790,242.545 100.821,243.323 117.164 L 243.457 119.973 247.754 116.589 C 250.117 114.728,253.018 112.399,254.199 111.413 C 255.381 110.428,256.950 109.220,257.686 108.728 C 258.959 107.878,259.073 107.737,260.034 105.822 C 263.831 98.251,269.009 94.308,273.432 95.622 M235.316 131.592 C 226.491 140.170,219.138 150.803,216.641 158.598 C 211.884 173.452,218.239 184.998,226.603 176.695 C 233.847 169.504,238.278 152.243,238.281 131.201 C 238.281 128.589,238.425 128.570,235.316 131.592 " stroke="none" fill="none" fill-rule="evenodd"></path><path id="path2" d="M215.088 107.910 C 215.090 108.340,215.130 108.493,215.177 108.250 C 215.224 108.007,215.222 107.655,215.173 107.468 C 215.124 107.282,215.086 107.480,215.088 107.910 M218.806 109.473 C 218.807 110.010,218.845 110.206,218.890 109.909 C 218.935 109.613,218.934 109.173,218.887 108.933 C 218.841 108.693,218.804 108.936,218.806 109.473 M290.029 115.381 L 289.355 116.113 290.088 115.440 C 290.770 114.814,290.910 114.648,290.761 114.648 C 290.728 114.648,290.399 114.978,290.029 115.381 M243.213 118.066 C 243.215 118.496,243.255 118.649,243.302 118.406 C 243.349 118.163,243.347 117.811,243.298 117.625 C 243.249 117.438,243.211 117.637,243.213 118.066 M243.626 125.879 C 243.627 126.953,243.659 127.368,243.699 126.800 C 243.738 126.233,243.738 125.354,243.698 124.847 C 243.658 124.340,243.626 124.805,243.626 125.879 M230.857 131.787 L 228.027 134.668 230.908 131.838 C 233.584 129.210,233.877 128.906,233.738 128.906 C 233.709 128.906,232.413 130.203,230.857 131.787 M111.182 135.840 C 111.184 136.270,111.224 136.422,111.271 136.179 C 111.318 135.936,111.316 135.585,111.267 135.398 C 111.218 135.211,111.180 135.410,111.182 135.840 M214.889 169.531 C 214.889 169.907,214.929 170.061,214.978 169.873 C 215.028 169.685,215.028 169.377,214.978 169.189 C 214.929 169.001,214.889 169.155,214.889 169.531 " stroke="none" fill="#fcc7bd" fill-rule="evenodd"></path><path id="path3" d="M197.339 61.230 C 197.339 62.412,197.371 62.870,197.410 62.249 C 197.449 61.627,197.449 60.660,197.409 60.100 C 197.370 59.540,197.338 60.049,197.339 61.230 M152.198 101.855 C 152.200 102.285,152.240 102.438,152.287 102.195 C 152.333 101.952,152.332 101.600,152.283 101.414 C 152.234 101.227,152.196 101.426,152.198 101.855 M274.090 106.543 C 274.091 107.402,274.125 107.730,274.167 107.270 C 274.208 106.811,274.207 106.108,274.165 105.708 C 274.123 105.308,274.090 105.684,274.090 106.543 M218.803 107.813 C 218.803 108.296,218.841 108.494,218.888 108.252 C 218.934 108.010,218.934 107.615,218.888 107.373 C 218.841 107.131,218.803 107.329,218.803 107.813 M270.460 110.645 C 270.511 110.913,270.587 111.133,270.628 111.133 C 270.669 111.133,270.703 110.913,270.703 110.645 C 270.703 110.376,270.627 110.156,270.535 110.156 C 270.442 110.156,270.409 110.376,270.460 110.645 M112.155 113.086 C 112.155 113.462,112.195 113.616,112.244 113.428 C 112.293 113.240,112.293 112.932,112.244 112.744 C 112.195 112.556,112.155 112.710,112.155 113.086 M236.999 113.135 L 236.426 113.770 237.061 113.196 C 237.652 112.661,237.785 112.500,237.634 112.500 C 237.601 112.500,237.315 112.786,236.999 113.135 M243.014 113.672 C 243.014 114.048,243.054 114.202,243.103 114.014 C 243.153 113.826,243.153 113.518,243.103 113.330 C 243.054 113.142,243.014 113.296,243.014 113.672 M257.097 116.406 C 257.097 117.212,257.131 117.542,257.174 117.139 C 257.216 116.736,257.216 116.077,257.174 115.674 C 257.131 115.271,257.097 115.601,257.097 116.406 M237.953 117.188 C 237.953 117.886,237.989 118.171,238.032 117.822 C 238.075 117.473,238.075 116.902,238.032 116.553 C 237.989 116.204,237.953 116.489,237.953 117.188 M111.959 116.992 C 111.959 117.368,112.000 117.522,112.049 117.334 C 112.098 117.146,112.098 116.838,112.049 116.650 C 112.000 116.462,111.959 116.616,111.959 116.992 M243.213 119.434 C 243.215 119.863,243.255 120.016,243.302 119.773 C 243.349 119.530,243.347 119.179,243.298 118.992 C 243.249 118.805,243.211 119.004,243.213 119.434 M151.022 120.898 C 151.022 121.274,151.062 121.428,151.111 121.240 C 151.160 121.052,151.160 120.745,151.111 120.557 C 151.062 120.369,151.022 120.522,151.022 120.898 M279.150 120.843 C 279.446 120.888,279.929 120.888,280.225 120.843 C 280.520 120.798,280.278 120.762,279.688 120.762 C 279.097 120.762,278.855 120.798,279.150 120.843 M260.986 122.205 C 261.174 122.254,261.482 122.254,261.670 122.205 C 261.858 122.156,261.704 122.116,261.328 122.116 C 260.952 122.116,260.798 122.156,260.986 122.205 M200.732 123.185 C 200.974 123.231,201.370 123.231,201.611 123.185 C 201.853 123.138,201.655 123.100,201.172 123.100 C 200.688 123.100,200.491 123.138,200.732 123.185 M111.569 125.000 C 111.569 125.376,111.609 125.530,111.658 125.342 C 111.707 125.154,111.707 124.846,111.658 124.658 C 111.609 124.470,111.569 124.624,111.569 125.000 M235.347 127.295 L 233.691 129.004 235.400 127.348 C 236.340 126.437,237.109 125.668,237.109 125.639 C 237.109 125.497,236.885 125.708,235.347 127.295 M116.065 127.051 C 116.067 127.480,116.107 127.633,116.154 127.390 C 116.200 127.147,116.199 126.796,116.150 126.609 C 116.101 126.422,116.063 126.621,116.065 127.051 M111.373 128.906 C 111.373 129.282,111.414 129.436,111.463 129.248 C 111.512 129.060,111.512 128.752,111.463 128.564 C 111.414 128.376,111.373 128.530,111.373 128.906 M238.331 129.590 C 238.333 130.020,238.373 130.172,238.419 129.929 C 238.466 129.686,238.464 129.335,238.415 129.148 C 238.367 128.961,238.328 129.160,238.331 129.590 M151.585 130.029 C 151.573 130.271,151.637 130.469,151.728 130.469 C 151.818 130.469,152.060 130.271,152.265 130.029 L 152.637 129.590 152.214 129.946 C 151.806 130.292,151.789 130.292,151.700 129.946 C 151.626 129.660,151.603 129.676,151.585 130.029 M111.200 133.691 C 111.200 134.551,111.235 134.878,111.276 134.419 C 111.317 133.959,111.317 133.256,111.275 132.856 C 111.233 132.456,111.199 132.832,111.200 133.691 M115.905 137.207 C 115.905 139.893,115.932 141.018,115.966 139.709 C 116.000 138.399,116.000 136.202,115.966 134.826 C 115.933 133.450,115.905 134.521,115.905 137.207 M243.413 133.789 C 243.413 134.272,243.451 134.470,243.497 134.229 C 243.544 133.987,243.544 133.591,243.497 133.350 C 243.451 133.108,243.413 133.306,243.413 133.789 M232.312 134.424 L 231.738 135.059 232.373 134.485 C 232.965 133.950,233.098 133.789,232.947 133.789 C 232.913 133.789,232.627 134.075,232.312 134.424 M238.135 137.402 C 238.137 137.832,238.177 137.985,238.224 137.742 C 238.271 137.499,238.269 137.147,238.220 136.961 C 238.171 136.774,238.133 136.973,238.135 137.402 M111.373 140.820 C 111.373 141.196,111.414 141.350,111.463 141.162 C 111.512 140.974,111.512 140.667,111.463 140.479 C 111.414 140.291,111.373 140.444,111.373 140.820 M116.061 146.484 C 116.061 146.860,116.101 147.014,116.150 146.826 C 116.199 146.638,116.199 146.331,116.150 146.143 C 116.101 145.955,116.061 146.108,116.061 146.484 M214.900 168.066 C 214.901 168.604,214.939 168.800,214.984 168.503 C 215.029 168.206,215.028 167.767,214.981 167.527 C 214.935 167.286,214.898 167.529,214.900 168.066 M214.889 170.703 C 214.889 171.079,214.929 171.233,214.978 171.045 C 215.028 170.857,215.028 170.549,214.978 170.361 C 214.929 170.173,214.889 170.327,214.889 170.703 M230.167 178.564 L 229.395 179.395 230.225 178.622 C 230.997 177.904,231.144 177.734,230.997 177.734 C 230.965 177.734,230.591 178.108,230.167 178.564 M183.272 182.324 C 183.272 183.291,183.305 183.711,183.346 183.258 C 183.387 182.805,183.387 182.014,183.347 181.500 C 183.307 180.987,183.273 181.357,183.272 182.324 M221.143 182.947 C 221.331 182.996,221.638 182.996,221.826 182.947 C 222.014 182.898,221.860 182.858,221.484 182.858 C 221.108 182.858,220.955 182.898,221.143 182.947 " stroke="none" fill="#fcb4ac" fill-rule="evenodd"></path><path id="path4" d="M187.294 52.100 L 186.621 52.832 187.354 52.159 C 188.035 51.532,188.176 51.367,188.027 51.367 C 187.994 51.367,187.664 51.697,187.294 52.100 M152.418 96.875 C 152.418 98.110,152.449 98.616,152.488 97.998 C 152.527 97.380,152.527 96.370,152.488 95.752 C 152.449 95.134,152.418 95.640,152.418 96.875 M268.349 101.318 L 267.676 102.051 268.408 101.378 C 269.090 100.751,269.230 100.586,269.081 100.586 C 269.049 100.586,268.719 100.916,268.349 101.318 M215.084 109.180 C 215.084 109.556,215.125 109.709,215.174 109.521 C 215.223 109.333,215.223 109.026,215.174 108.838 C 215.125 108.650,215.084 108.804,215.084 109.180 M243.209 116.797 C 243.209 117.173,243.250 117.327,243.299 117.139 C 243.348 116.951,243.348 116.643,243.299 116.455 C 243.250 116.267,243.209 116.421,243.209 116.797 M146.928 121.289 C 146.928 121.772,146.966 121.970,147.013 121.729 C 147.059 121.487,147.059 121.091,147.013 120.850 C 146.966 120.608,146.928 120.806,146.928 121.289 M243.617 128.906 C 243.617 129.604,243.653 129.890,243.696 129.541 C 243.739 129.192,243.739 128.621,243.696 128.271 C 243.653 127.922,243.617 128.208,243.617 128.906 M234.760 131.982 L 233.496 133.301 234.814 132.037 C 235.540 131.342,236.133 130.748,236.133 130.719 C 236.133 130.575,235.934 130.758,234.760 131.982 M227.333 135.303 L 226.660 136.035 227.393 135.362 C 228.074 134.736,228.215 134.570,228.066 134.570 C 228.033 134.570,227.703 134.900,227.333 135.303 M111.186 137.305 C 111.186 137.788,111.224 137.986,111.271 137.744 C 111.317 137.502,111.317 137.107,111.271 136.865 C 111.224 136.624,111.186 136.821,111.186 137.305 M211.789 167.188 C 211.789 168.208,211.822 168.625,211.862 168.115 C 211.903 167.605,211.903 166.770,211.862 166.260 C 211.822 165.750,211.789 166.167,211.789 167.188 " stroke="none" fill="#fcdfd9" fill-rule="evenodd"></path></g></svg>